<?xml version="1.0" standalone="no"?>
<!DOCTYPE svg PUBLIC "-//W3C//DTD SVG 20010904//EN"
 "http://www.w3.org/TR/2001/REC-SVG-20010904/DTD/svg10.dtd">
<svg version="1.0" xmlns="http://www.w3.org/2000/svg"
 width="502.000000pt" height="502.000000pt" viewBox="0 0 502.000000 502.000000"
 preserveAspectRatio="xMidYMid meet">
<metadata>
Created by potrace 1.11, written by Peter Selinger 2001-2013
</metadata>
<g transform="translate(0.000000,502.000000) scale(0.100000,-0.100000)"
fill="#000000" stroke="none">
<path d="M3836 4723 c-39 -61 -163 -191 -256 -267 -185 -153 -351 -257 -650
-409 -129 -66 -291 -151 -360 -189 -138 -77 -521 -314 -548 -339 -17 -15 -18
18 -18 605 l0 621 -59 -3 c-68 -2 -195 -33 -270 -65 -267 -113 -461 -377 -491
-667 -4 -36 -7 -393 -7 -795 0 -401 -2 -735 -4 -742 -3 -7 -37 -38 -76 -70
-109 -89 -100 -85 -141 -68 -46 19 -137 19 -184 0 -101 -43 -157 -165 -126
-275 l13 -44 -77 -81 c-43 -44 -94 -98 -113 -119 -19 -22 -41 -47 -49 -56 -66
-71 -211 -269 -263 -360 -113 -198 -152 -375 -107 -492 71 -187 322 -252 745
-193 22 3 47 8 55 10 8 2 31 6 50 9 29 4 251 60 328 82 15 4 22 2 22 -8 0 -20
92 -155 142 -209 91 -96 225 -176 373 -223 90 -28 234 -57 238 -47 2 3 3 180
2 393 l-1 387 100 48 c55 26 169 83 254 126 84 42 158 77 164 77 16 0 409
-176 559 -250 403 -201 716 -488 826 -761 16 -38 30 -69 33 -69 3 0 4 224 3
497 l-1 498 -27 85 c-53 167 -158 323 -331 494 l-107 106 24 20 c13 10 27 19
30 20 4 0 128 91 174 127 6 5 51 39 100 78 336 259 673 584 875 844 447 573
371 943 -194 942 -166 0 -349 -25 -526 -70 -41 -10 -78 -17 -81 -15 -3 2 -6
195 -6 429 0 234 -2 427 -4 430 -3 2 -18 -17 -33 -42z m479 -948 c118 -30 177
-94 180 -194 5 -193 -200 -487 -591 -848 -54 -50 -133 -119 -174 -153 -41 -34
-86 -71 -99 -82 -39 -33 -302 -232 -372 -281 l-66 -47 -84 54 c-184 117 -470
268 -674 355 l-49 22 44 25 c25 15 196 101 380 193 504 250 691 370 886 567
120 122 176 221 176 312 0 29 5 55 10 58 21 13 169 31 268 33 68 1 126 -4 165
-14z m-3139 -2027 c-1 -315 -4 -578 -8 -584 -6 -9 -32 -17 -135 -39 -13 -3
-33 -7 -45 -10 -13 -3 -39 -8 -58 -11 -19 -3 -46 -7 -60 -10 -67 -13 -253 -12
-312 2 -259 60 -251 290 21 644 19 25 40 50 45 55 6 6 35 37 63 71 l52 61 51
-17 c113 -38 227 7 280 111 25 47 30 141 11 188 -13 29 -12 33 10 50 13 10 35
28 49 39 14 12 28 21 31 22 4 0 6 -258 5 -572z m934 -210 c0 -4 -21 -17 -47
-29 -27 -12 -51 -23 -55 -25 -3 -2 -6 20 -5 49 l2 53 52 -20 c29 -12 53 -24
53 -28z"/>
</g>
</svg>
